<?xml version="1.0" encoding="UTF-8"?>
<svg width="200" height="200" viewBox="0 0 200 200" fill="none" xmlns="http://www.w3.org/2000/svg">
  <!-- Gradient Definitions -->
  <defs>
    <linearGradient id="primaryGradient" x1="0%" y1="0%" x2="100%" y2="100%">
      <stop offset="0%" style="stop-color:#4ade80;stop-opacity:1" />
      <stop offset="100%" style="stop-color:#818cf8;stop-opacity:1" />
    </linearGradient>
    <linearGradient id="glowGradient" x1="50%" y1="0%" x2="50%" y2="100%">
      <stop offset="0%" style="stop-color:#4ade80;stop-opacity:0.5" />
      <stop offset="100%" style="stop-color:#818cf8;stop-opacity:0.2" />
    </linearGradient>
    <!-- Glow Filter -->
    <filter id="glow" x="-50%" y="-50%" width="200%" height="200%">
      <feGaussianBlur in="SourceGraphic" stdDeviation="4" result="blur" />
      <feColorMatrix in="blur" type="matrix" values="0 0 0 0 0.29   0 0 0 0 0.86   0 0 0 0 0.5  0 0 0 1 0"/>
    </filter>
  </defs>

  <!-- Background Hexagon -->
  <path d="M100 20L160 50V150L100 180L40 150V50L100 20Z" 
        fill="url(#primaryGradient)" 
        stroke="rgba(255,255,255,0.1)" 
        stroke-width="2"/>

  <!-- Avatar Silhouette -->
  <path d="M100 60C89 60 80 69 80 80C80 91 89 100 100 100C111 100 120 91 120 80C120 69 111 60 100 60Z" 
        fill="white" 
        fill-opacity="0.9"/>
  <path d="M70 120C70 103.43 83.43 90 100 90C116.57 90 130 103.43 130 120V140H70V120Z" 
        fill="white" 
        fill-opacity="0.9"/>

  <!-- Decorative Circuit Lines -->
  <g stroke="rgba(255,255,255,0.3)" stroke-width="1">
    <path d="M40 100H70" />
    <path d="M130 100H160" />
    <path d="M100 180V140" />
  </g>

  <!-- Glowing Nodes -->
  <circle cx="40" cy="100" r="3" fill="white" filter="url(#glow)"/>
  <circle cx="160" cy="100" r="3" fill="white" filter="url(#glow)"/>
  <circle cx="100" cy="180" r="3" fill="white" filter="url(#glow)"/>

  <!-- SOL Text -->
  <text x="100" y="165" 
        font-family="Arial, sans-serif" 
        font-size="14" 
        fill="white" 
        text-anchor="middle" 
        font-weight="bold">SOLAVATAR</text>
</svg> 