<?xml version="1.0" encoding="UTF-8"?>
<svg width="240" height="60" viewBox="0 0 240 60" fill="none" xmlns="http://www.w3.org/2000/svg">
  <defs>
    <!-- Icon glow effect -->
    <filter id="iconGlow" x="-50%" y="-50%" width="200%" height="200%">
      <feGaussianBlur in="SourceGraphic" stdDeviation="1" result="blur" />
      <feColorMatrix in="blur" type="matrix" values="0 0 0 0 0.29   0 0 0 0 0.86   0 0 0 0 0.5  0 0 0 0.5 0"/>
    </filter>
    
    <!-- Gradient for icons -->
    <linearGradient id="iconGradient" x1="0%" y1="0%" x2="100%" y2="100%">
      <stop offset="0%" style="stop-color:#4ade80;stop-opacity:1" />
      <stop offset="100%" style="stop-color:#818cf8;stop-opacity:1" />
    </linearGradient>
  </defs>

  <!-- Discord Icon -->
  <g transform="translate(10,10)" filter="url(#iconGlow)">
    <path d="M30 10.7c-2.3-1-4.7-1.8-7.2-2.2c-.3.6-.6 1.3-.9 1.9c-2.7-.4-5.4-.4-8.1 0c-.2-.6-.6-1.3-.9-1.9c-2.5.4-4.9 1.2-7.2 2.2C1.3 18.1.3 25.4 1.3 32.6c2.8 2 5.8 3.5 9 4.3c.7-1 1.3-2 1.9-3.1c-1-.4-2-.9-2.9-1.5c.2-.2.5-.3.7-.5c5.8 2.6 12.1 2.6 17.8 0c.2.2.5.3.7.5c-.9.6-1.9 1.1-2.9 1.5c.5 1.1 1.2 2.1 1.9 3.1c3.2-.8 6.2-2.3 9-4.3c1.1-8.3-.6-15.5-5.5-21.9zM13.1 28.4c-1.7 0-3.2-1.6-3.2-3.6s1.4-3.6 3.2-3.6c1.8 0 3.2 1.6 3.2 3.6c0 2-1.4 3.6-3.2 3.6zm11.8 0c-1.7 0-3.2-1.6-3.2-3.6s1.4-3.6 3.2-3.6c1.8 0 3.2 1.6 3.2 3.6c0 2-1.4 3.6-3.2 3.6z" 
          fill="url(#iconGradient)"/>
  </g>

  <!-- Twitter/X Icon -->
  <g transform="translate(90,10)" filter="url(#iconGlow)">
    <path d="M36.9 8.4c-1.3.6-2.7 1-4.2 1.2c1.5-1 2.7-2.4 3.2-4.2c-1.4.9-3 1.5-4.7 1.8C29.9 5.8 28 5 26 5c-4 0-7.2 3.2-7.2 7.2c0 .6.1 1.1.2 1.6c-6-.3-11.3-3.2-14.9-7.6c-.6 1.1-1 2.3-1 3.7c0 2.5 1.3 4.7 3.2 6c-1.2 0-2.3-.4-3.2-.9v.1c0 3.5 2.5 6.4 5.8 7.1c-.6.2-1.2.2-1.9.2c-.5 0-.9 0-1.4-.1c.9 2.9 3.6 5 6.8 5c-2.5 1.9-5.6 3.1-9 3.1c-.6 0-1.2 0-1.7-.1c3.2 2.1 7 3.3 11.1 3.3c13.4 0 20.7-11.1 20.7-20.7c0-.3 0-.6 0-.9c1.4-1 2.6-2.3 3.6-3.7z" 
          fill="url(#iconGradient)"/>
  </g>

  <!-- GitHub Icon -->
  <g transform="translate(170,10)" filter="url(#iconGlow)">
    <path d="M20 5C11.7 5 5 11.7 5 20c0 6.6 4.3 12.2 10.3 14.2c.8.1 1-.3 1-.7v-2.6c-4.2.9-5.1-2-5.1-2c-.7-1.7-1.7-2.2-1.7-2.2c-1.4-.9.1-.9.1-.9c1.5.1 2.3 1.5 2.3 1.5c1.3 2.3 3.5 1.6 4.4 1.2c.1-1 .5-1.6 1-2c-3.3-.4-6.8-1.7-6.8-7.4c0-1.6.6-3 1.5-4c-.2-.4-.7-1.9.1-4c0 0 1.3-.4 4.1 1.5c1.2-.3 2.5-.5 3.8-.5c1.3 0 2.6.2 3.8.5c2.9-1.9 4.1-1.5 4.1-1.5c.8 2.1.3 3.6.1 4c1 1 1.5 2.4 1.5 4c0 5.8-3.5 7-6.8 7.4c.5.5 1 1.4 1 2.8v4.1c0 .4.3.9 1 .7C30.7 32.2 35 26.6 35 20c0-8.3-6.7-15-15-15z" 
          fill="url(#iconGradient)"/>
  </g>
</svg> 